<?xml version="1.0" encoding="UTF-8"?>
<svg version="1.1" xmlns="http://www.w3.org/2000/svg" width="122" height="121">
<path d="M0 0 C40.26 0 80.52 0 122 0 C122 39.93 122 79.86 122 121 C81.74 121 41.48 121 0 121 C0 81.07 0 41.14 0 0 Z " fill="#FDFDFD" transform="translate(0,0)"/>
<path d="M0 0 C9.93558364 7.12050161 16.45147327 15.81245572 19.734375 27.57421875 C20.064375 28.56421875 20.394375 29.55421875 20.734375 30.57421875 C21.87350849 43.55287086 18.80535159 54.34816465 10.734375 64.57421875 C3.17463421 73.35986345 -7.26931811 78.78609991 -18.79296875 79.921875 C-32.05912442 80.25316879 -42.95055475 76.41577638 -52.953125 67.57421875 C-62.55683359 57.42303034 -64.85007485 44.79752388 -64.59765625 31.421875 C-64.06665169 20.1309261 -58.42152467 12.04934775 -50.265625 4.57421875 C-47.40412079 2.24893337 -44.49697009 0.3448188 -41.265625 -1.42578125 C-40.5540625 -1.83828125 -39.8425 -2.25078125 -39.109375 -2.67578125 C-27.21197164 -8.54299386 -11.02073923 -6.93546521 0 0 Z " fill="#FDFDFD" transform="translate(75.265625,16.42578125)"/>
<path d="M0 0 C9.52079031 7.7626475 18.3602157 19.45468596 19.71557617 32.07958984 C20.42415812 45.71347896 19.33798888 58.07237814 10.5703125 69.1328125 C9.32248322 70.93447202 9.32248322 70.93447202 9.62207031 72.83984375 C10.8827054 76.00622105 12.94047827 77.72462324 15.40625 80.0625 C16.40584858 81.02903879 17.40518975 81.99584384 18.40429688 82.96289062 C19.98242883 84.47265408 21.56435548 85.97810185 23.15161133 87.47827148 C24.68485694 88.93298675 26.20229112 90.40282256 27.71875 91.875 C28.63406494 92.74503662 29.54937988 93.61507324 30.49243164 94.51147461 C32.49609375 97.03515625 32.49609375 97.03515625 32.79467773 99.85766602 C32.69614502 100.57623779 32.5976123 101.29480957 32.49609375 102.03515625 C30.83984375 102.859375 30.83984375 102.859375 28.49609375 103.03515625 C26.44200163 101.36775316 24.77520126 99.77686867 22.99609375 97.84765625 C22.21975586 97.0429187 22.21975586 97.0429187 21.42773438 96.22192383 C19.20992638 93.92218535 17.02264951 91.59415823 14.83203125 89.26855469 C13.23018691 87.57655915 11.61376424 85.89950367 9.99609375 84.22265625 C9.50431641 83.68938721 9.01253906 83.15611816 8.50585938 82.60668945 C6.96677817 80.95423598 6.96677817 80.95423598 4.49609375 79.03515625 C1.10040834 79.18310416 -1.101109 80.97525025 -3.87890625 82.84765625 C-14.80399879 89.50538518 -27.30718681 91.94310038 -39.85546875 89.33984375 C-54.30101167 85.31403671 -64.45814563 77.583292 -72.50390625 65.03515625 C-78.90657765 53.14223345 -80.67872527 39.60842504 -77.66796875 26.35546875 C-73.95548154 15.96548778 -67.58533631 6.43896878 -58.50390625 0.03515625 C-57.39595703 -0.74988281 -57.39595703 -0.74988281 -56.265625 -1.55078125 C-39.25212463 -12.67603668 -16.58860762 -11.60956046 0 0 Z M-64.671875 15.51953125 C-72.12458423 25.75310213 -72.88979744 36.78987721 -71.50390625 49.03515625 C-69.09160836 60.58453778 -62.01646194 70.2235134 -52.50390625 77.03515625 C-41.95846975 82.86480085 -31.19025452 84.85347078 -19.23828125 82.3515625 C-6.47698796 78.40865009 3.02269382 70.72274681 9.49609375 59.03515625 C14.28055243 48.50934715 15.35114331 37.47855449 11.54296875 26.44921875 C8.64427622 19.76492031 5.00959068 13.85946606 -0.50390625 9.03515625 C-1.39078125 8.21015625 -2.27765625 7.38515625 -3.19140625 6.53515625 C-13.1136165 -1.60878775 -23.89652871 -2.79614886 -36.26855469 -2.19140625 C-47.73246342 -1.02948977 -57.5162162 6.99484108 -64.671875 15.51953125 Z " fill="#090909" transform="translate(82.50390625,12.96484375)"/>
</svg>
